<svg width="40" height="40" viewBox="0 0 40 40" fill="none" xmlns="http://www.w3.org/2000/svg">
<g clip-path="url(#clip0_7_429)">
<path d="M15.9181 38.225C15.9181 39.2037 16.7144 40 17.6931 40H25.5487C26.5275 40 27.3238 39.2037 27.3238 38.225V36.0126H15.9181V38.225Z" fill="white"/>
<path d="M31.0468 29.5496C31.518 28.9484 31.7773 28.1979 31.7773 27.4338V24.6599C31.7773 23.1452 30.7617 21.7912 29.3075 21.3674L22.718 19.4468V11.7461C22.718 10.1865 21.4491 8.91748 19.8893 8.91748C18.3296 8.91748 17.0607 10.1865 17.0607 11.7461V24.1063L15.0314 21.6714C14.1686 20.6363 12.6336 20.4385 11.5366 21.2211C10.5517 21.9238 10.1852 23.1962 10.6453 24.3151C10.6505 24.3278 10.6561 24.3402 10.6622 24.3525L15.2764 33.6666H28.2376L31.0468 29.5496Z" fill="white"/>
<path d="M19.889 4.20752C15.7765 4.20752 12.4307 7.55329 12.4307 11.6658C12.4307 12.3136 12.9559 12.8388 13.6037 12.8388C14.2515 12.8388 14.7767 12.3136 14.7767 11.6658C14.7767 8.84689 17.0701 6.55356 19.889 6.55356C22.708 6.55356 25.0013 8.84689 25.0013 11.6658C25.0013 12.3136 25.5265 12.8388 26.1743 12.8388C26.8221 12.8388 27.3473 12.3136 27.3473 11.6658C27.3473 7.55329 24.0016 4.20752 19.889 4.20752Z" fill="white"/>
<path d="M19.8893 2.34604C25.0282 2.34604 29.2091 6.52684 29.2091 11.6658C29.2091 12.3136 29.7343 12.8388 30.3821 12.8388C31.0299 12.8388 31.5551 12.3136 31.5551 11.6658C31.5551 5.23324 26.3219 0 19.8893 0C13.4569 0 8.22363 5.23324 8.22363 11.6658C8.22363 12.3136 8.74883 12.8388 9.39665 12.8388C10.0445 12.8388 10.5697 12.3136 10.5697 11.6658C10.5697 6.52684 14.7505 2.34604 19.8893 2.34604Z" fill="white"/>
</g>
<defs>
<clipPath id="clip0_7_429">
<rect width="40" height="40" fill="white"/>
</clipPath>
</defs>
</svg>
