<svg width="40" height="40" viewBox="0 0 40 40" fill="none" xmlns="http://www.w3.org/2000/svg">
<g clip-path="url(#clip0_1_583)">
<path d="M20.0108 11.3946C20.607 11.6481 21.1842 11.9356 21.7414 12.2556C22.1727 12.2878 22.7725 12.261 22.7724 11.6845C22.7724 11.6846 22.7477 0.569221 22.7477 0.569221C22.7469 0.204924 22.4108 -0.065076 22.0571 0.0137521C16.8174 1.18133 12.6335 5.16883 11.1606 10.3111C14.1356 9.83836 17.2473 10.2109 20.0108 11.3946Z" fill="white"/>
<path d="M13.6708 12.5398C-2.60116 12.4301 -5.00702 36.6144 10.6757 39.9573C10.9468 40.0183 11.2056 39.8126 11.2049 39.5325L11.1811 28.8643C11.1806 28.6246 10.9871 28.4306 10.7487 28.4306H9.28181C8.80993 28.4306 8.52493 27.9057 8.78017 27.5067C15.2728 17.9795 12.1208 17.9823 18.6147 27.5067C18.87 27.9056 18.585 28.4305 18.1131 28.4305H16.4563C16.217 28.4305 16.0233 28.6257 16.0238 28.8662L16.0476 39.5653C16.0482 39.8396 16.2989 40.0473 16.5659 39.9906C32.4163 36.7839 30.0465 12.3998 13.6708 12.5398Z" fill="white"/>
<path d="M39.8933 14.1663C39.7893 7.28756 34.9951 1.55248 28.5834 0.0491199C28.2279 -0.0342394 27.8879 0.239042 27.8887 0.606073L27.9133 11.6871C27.914 12.0012 28.1675 12.2556 28.48 12.2556H30.0514C30.4999 12.2556 30.7707 12.7544 30.5282 13.1335L27.5049 17.8602C29.4301 20.9754 30.2443 24.7458 29.796 28.3902C35.7106 26.4303 39.9931 20.7696 39.8933 14.1663Z" fill="white"/>
</g>
<defs>
<clipPath id="clip0_1_583">
<rect width="40" height="40" fill="white"/>
</clipPath>
</defs>
</svg>
