<svg width="40" height="40" viewBox="0 0 40 40" fill="none" xmlns="http://www.w3.org/2000/svg">
<path d="M16.9875 33.775C16.9125 33.8125 16.8375 33.85 16.75 33.8875C16.5875 33.9625 16.425 33.9875 16.25 33.9875C16.075 33.9875 15.9125 33.95 15.75 33.8875C9.6 31.2 5.625 25.125 5.625 18.4125V11.5625C5.625 11.075 5.9125 10.625 6.3625 10.425L15.7375 6.1625C16.0625 6.0125 16.4375 6.0125 16.775 6.1625L26.15 10.425C26.6 10.625 26.8875 11.075 26.8875 11.5625V13.8125C27.3 13.775 27.7125 13.75 28.1375 13.75C29.2125 13.75 30.2625 13.9 31.2625 14.1375V8.75C31.2625 8.2625 30.975 7.8125 30.525 7.6125L16.7625 1.3625C16.4375 1.2125 16.0625 1.2125 15.725 1.3625L1.9875 7.6125C1.5375 7.8125 1.25 8.2625 1.25 8.75V18.4125C1.25 26.95 6.325 34.6375 14.1875 37.975L15.7625 38.65C15.925 38.7125 16.0875 38.75 16.25 38.75C16.4125 38.75 16.5875 38.7125 16.7375 38.65L18.3125 37.975C18.8875 37.725 19.45 37.45 20 37.1625C18.8125 36.2125 17.7875 35.075 16.9875 33.775Z" fill="white"/>
<path d="M24.375 14.3V12.375L16.25 8.6875L8.125 12.375V18.4125C8.125 23.7375 11.0625 28.5875 15.7 31.075C15.25 29.75 15 28.3375 15 26.875C15 20.9375 18.9625 15.925 24.375 14.3Z" fill="white"/>
<path d="M28.125 16.25C22.2625 16.25 17.5 21.0125 17.5 26.875C17.5 32.7375 22.2625 37.5 28.125 37.5C33.9875 37.5 38.75 32.7375 38.75 26.875C38.75 21.0125 33.9875 16.25 28.125 16.25ZM33.1625 25.1625L28.025 30.35C27.7875 30.5875 27.475 30.725 27.1375 30.725C26.8125 30.725 26.4875 30.5875 26.25 30.3625L23.0875 27.2C22.6 26.7125 22.6 25.925 23.0875 25.425C23.575 24.9375 24.3625 24.9375 24.8625 25.425L27.1375 27.7L31.3875 23.4125C31.875 22.925 32.6625 22.9125 33.15 23.4125C33.6375 23.9 33.65 24.6875 33.15 25.175L33.1625 25.1625Z" fill="white"/>
</svg>
