<svg width="40" height="40" viewBox="0 0 40 40" fill="none" xmlns="http://www.w3.org/2000/svg">
<g clip-path="url(#clip0_1_604)">
<path d="M18.7827 12.5C18.6682 9.1275 18.0609 6.00773 17.0429 3.61578C16.0724 1.33508 14.8027 0 13.6466 0C12.4905 0 11.2208 1.33508 10.2503 3.61578C9.23229 6.00773 8.62495 9.1275 8.5105 12.5H18.7827Z" fill="white"/>
<path d="M21.1278 12.5001H27.2677C26.8051 7.07701 23.1636 2.54748 18.2192 0.787476C20.2138 4.00052 21.0056 8.68771 21.1278 12.5001Z" fill="white"/>
<path d="M9.07383 0.787476C4.12945 2.54748 0.487969 7.07701 0.0253906 12.5001H6.16531C6.28734 8.6881 7.08109 3.99724 9.07383 0.787476Z" fill="white"/>
<path d="M6.16531 14.8438H0.0253906C0.487969 20.2668 4.12945 24.7963 9.07383 26.5563C7.07914 23.3433 6.28742 18.6561 6.16531 14.8438Z" fill="white"/>
<path d="M27.3965 14.8438C20.4609 14.8438 14.8184 20.4863 14.8184 27.4219C14.8184 34.3574 20.4609 40 27.3965 40C34.3321 40 39.9746 34.3574 39.9746 27.4219C39.9746 20.4863 34.3321 14.8438 27.3965 14.8438ZM28.5684 33.5938V34.2969C28.5684 34.9441 28.0437 35.4688 27.3965 35.4688C26.7493 35.4688 26.2246 34.9441 26.2246 34.2969V33.5938H24.8965C24.2493 33.5938 23.7246 33.0691 23.7246 32.4219C23.7246 31.7747 24.2493 31.25 24.8965 31.25H28.6465C29.3788 31.25 29.9746 30.6542 29.9746 29.9219C29.9746 29.1895 29.3788 28.5938 28.6465 28.5938H26.1465C24.1218 28.5938 22.4746 26.9466 22.4746 24.9219C22.4746 22.9927 23.9975 21.25 26.2246 21.25V20.5469C26.2246 19.8997 26.7493 19.375 27.3965 19.375C28.0437 19.375 28.5684 19.8997 28.5684 20.5469V21.25H29.8965C30.5437 21.25 31.0684 21.7747 31.0684 22.4219C31.0684 23.0691 30.5437 23.5938 29.8965 23.5938H26.1465C25.4141 23.5938 24.8184 24.1895 24.8184 24.9219C24.8184 25.6542 25.4141 26.25 26.1465 26.25H28.6465C30.6712 26.25 32.3184 27.8972 32.3184 29.9219C32.3184 31.8511 30.7955 33.5938 28.5684 33.5938Z" fill="white"/>
<path d="M18.7649 15.2562C18.7712 15.119 18.778 14.9819 18.7827 14.8438H8.5105C8.62495 18.2162 9.23229 21.336 10.2503 23.728C10.9017 25.2587 11.6878 26.3626 12.4839 26.9236C12.6426 22.1141 15.0872 17.8732 18.7649 15.2562Z" fill="white"/>
</g>
<defs>
<clipPath id="clip0_1_604">
<rect width="40" height="40" fill="white"/>
</clipPath>
</defs>
</svg>
