<svg width="40" height="40" viewBox="0 0 40 40" fill="none" xmlns="http://www.w3.org/2000/svg">
<path d="M8.27996 16.7472H7.06893V14.3439C7.06893 14.1544 6.99365 13.9726 6.85966 13.8387C6.72567 13.7047 6.54394 13.6294 6.35445 13.6294C6.16496 13.6294 5.98324 13.7047 5.84925 13.8387C5.71526 13.9726 5.63998 14.1544 5.63998 14.3439V16.7472H4.42895C4.05031 16.7483 3.68749 16.8993 3.41975 17.167C3.15201 17.4347 3.00111 17.7975 3 18.1762V35.4593C2.99995 35.647 3.03688 35.8328 3.10867 36.0062C3.18046 36.1796 3.28572 36.3371 3.41842 36.4698C3.55112 36.6025 3.70866 36.7078 3.88205 36.7796C4.05544 36.8514 4.24128 36.8883 4.42895 36.8883H5.63998V39.296C5.64277 39.4837 5.71927 39.6627 5.85296 39.7944C5.98665 39.9261 6.1668 40 6.35447 40C6.54215 40 6.72229 39.9261 6.85597 39.7944C6.98966 39.6627 7.06615 39.4837 7.06893 39.296V36.8883H8.27996C8.46763 36.8883 8.65347 36.8514 8.82686 36.7796C9.00025 36.7078 9.1578 36.6025 9.2905 36.4698C9.4232 36.3371 9.52845 36.1796 9.60025 36.0062C9.67204 35.8328 9.70896 35.647 9.70891 35.4593V18.1762C9.70781 17.7975 9.55691 17.4347 9.28916 17.167C9.02142 16.8992 8.6586 16.7483 8.27996 16.7472Z" fill="white"/>
<path d="M17.6324 7.88776H16.4262V5.48413C16.4262 5.29464 16.3509 5.11291 16.2169 4.97892C16.0829 4.84493 15.9012 4.76965 15.7117 4.76965C15.5222 4.76965 15.3405 4.84493 15.2065 4.97892C15.0725 5.11291 14.9972 5.29464 14.9972 5.48413V7.88776H13.7886C13.4099 7.88887 13.0471 8.03977 12.7794 8.30751C12.5116 8.57525 12.3607 8.93807 12.3596 9.31671V26.5998C12.3596 26.7875 12.3965 26.9733 12.4683 27.1467C12.5401 27.3201 12.6453 27.4777 12.778 27.6104C12.9107 27.7431 13.0683 27.8483 13.2417 27.9201C13.4151 27.9919 13.6009 28.0288 13.7886 28.0288H14.9972V30.4363C15 30.6239 15.0765 30.803 15.2102 30.9347C15.3439 31.0664 15.524 31.1402 15.7117 31.1402C15.8994 31.1402 16.0795 31.0664 16.2132 30.9347C16.3469 30.8029 16.4234 30.6239 16.4262 30.4363V28.0288H17.6324C17.8203 28.0294 18.0064 27.9929 18.18 27.9213C18.3537 27.8498 18.5115 27.7445 18.6443 27.6117C18.7771 27.4789 18.8824 27.3211 18.9539 27.1474C19.0255 26.9738 19.062 26.7877 19.0614 26.5998V9.31671C19.0614 9.12904 19.0245 8.9432 18.9527 8.76981C18.8809 8.59642 18.7757 8.43888 18.643 8.30618C18.5103 8.17348 18.3527 8.06822 18.1793 7.99643C18.0059 7.92464 17.8201 7.88771 17.6324 7.88776Z" fill="white"/>
<path d="M26.9921 12.8677H25.7834V10.4618C25.7834 10.2723 25.7081 10.0906 25.5741 9.95658C25.4402 9.82259 25.2584 9.74731 25.0689 9.74731C24.8794 9.74731 24.6977 9.82259 24.5637 9.95658C24.4297 10.0906 24.3545 10.2723 24.3545 10.4618V12.8677H23.1482C22.9605 12.8677 22.7747 12.9046 22.6013 12.9764C22.4279 13.0482 22.2703 13.1534 22.1376 13.2861C22.0049 13.4188 21.8997 13.5764 21.8279 13.7498C21.7561 13.9232 21.7192 14.109 21.7192 14.2967V31.5798C21.7192 31.7675 21.7561 31.9533 21.8279 32.1267C21.8997 32.3001 22.005 32.4576 22.1377 32.5903C22.2704 32.723 22.4279 32.8283 22.6013 32.9001C22.7747 32.9719 22.9605 33.0088 23.1482 33.0087H24.3545V35.4139C24.3573 35.6016 24.4338 35.7806 24.5675 35.9123C24.7011 36.0441 24.8813 36.1179 25.069 36.1179C25.2566 36.1179 25.4368 36.044 25.5705 35.9123C25.7041 35.7806 25.7806 35.6016 25.7834 35.4139V33.0087H26.9921C27.3707 33.0076 27.7335 32.8567 28.0013 32.589C28.269 32.3212 28.4199 31.9584 28.421 31.5798V14.2967C28.4199 13.918 28.269 13.5552 28.0013 13.2875C27.7335 13.0197 27.3707 12.8688 26.9921 12.8677Z" fill="white"/>
<path d="M36.352 3.12225H35.1409V0.714474C35.1409 0.524984 35.0657 0.343255 34.9317 0.209265C34.7977 0.0752749 34.616 0 34.4265 0C34.237 0 34.0553 0.0752749 33.9213 0.209265C33.7873 0.343255 33.712 0.524984 33.712 0.714474V3.12225H32.501C32.3133 3.1222 32.1275 3.15912 31.9541 3.23091C31.7807 3.30271 31.6231 3.40796 31.4904 3.54066C31.3577 3.67336 31.2525 3.83091 31.1807 4.0043C31.1089 4.17769 31.072 4.36353 31.072 4.5512V21.8343C31.0731 22.213 31.224 22.5758 31.4918 22.8435C31.7595 23.1113 32.1223 23.2622 32.501 23.2633H33.712V25.6666C33.7148 25.8543 33.7913 26.0333 33.925 26.165C34.0587 26.2967 34.2388 26.3706 34.4265 26.3706C34.6142 26.3706 34.7943 26.2967 34.928 26.165C35.0617 26.0333 35.1382 25.8543 35.1409 25.6666V23.2633H36.352C36.7306 23.2622 37.0934 23.1112 37.3612 22.8435C37.6289 22.5758 37.7798 22.213 37.7809 21.8343V4.5512C37.781 4.36353 37.7441 4.1777 37.6723 4.0043C37.6005 3.83091 37.4952 3.67337 37.3625 3.54067C37.2298 3.40797 37.0723 3.30272 36.8989 3.23092C36.7255 3.15913 36.5396 3.1222 36.352 3.12225Z" fill="white"/>
</svg>
