<svg width="40" height="40" viewBox="0 0 40 40" fill="none" xmlns="http://www.w3.org/2000/svg">
<g clip-path="url(#clip0_7_410)">
<path d="M32.8573 8.57127H39.1572L31.4287 0.842773V7.14271C31.4287 7.52159 31.5792 7.88495 31.8471 8.15285C32.115 8.42076 32.4784 8.57127 32.8573 8.57127Z" fill="#B9AFA5"/>
<path d="M32.8568 11.4285C31.7201 11.4285 30.6301 10.9769 29.8263 10.1732C29.0226 9.3695 28.5711 8.27942 28.5711 7.14279V0H12.857C11.7203 0 10.6303 0.451525 9.82653 1.25524C9.02281 2.05896 8.57129 3.14904 8.57129 4.28567V8.57134C10.7649 8.57652 12.9107 9.21289 14.7524 10.4045C16.5941 11.5961 18.054 13.2926 18.9578 15.2913C19.8615 17.2901 20.171 19.5068 19.8491 21.6767C19.5272 23.8465 18.5877 25.8779 17.1426 27.5283V38.571C17.1444 39.0589 17.0573 39.543 16.8855 39.9996H35.7139C36.8505 39.9996 37.9406 39.5481 38.7443 38.7444C39.548 37.9406 39.9995 36.8506 39.9995 35.7139V11.4285H32.8568ZM18.5712 9.9999C18.5712 9.62102 18.7217 9.25766 18.9896 8.98976C19.2575 8.72185 19.6209 8.57134 19.9997 8.57134H24.2854C24.6643 8.57134 25.0277 8.72185 25.2956 8.98976C25.5635 9.25766 25.714 9.62102 25.714 9.9999C25.714 10.3788 25.5635 10.7421 25.2956 11.01C25.0277 11.2779 24.6643 11.4285 24.2854 11.4285H19.9997C19.6209 11.4285 19.2575 11.2779 18.9896 11.01C18.7217 10.7421 18.5712 10.3788 18.5712 9.9999ZM32.8568 32.8568H21.4283C21.0494 32.8568 20.6861 32.7063 20.4182 32.4384C20.1503 32.1705 19.9997 31.8071 19.9997 31.4283C19.9997 31.0494 20.1503 30.686 20.4182 30.4181C20.6861 30.1502 21.0494 29.9997 21.4283 29.9997H32.8568C33.2356 29.9997 33.599 30.1502 33.8669 30.4181C34.1348 30.686 34.2853 31.0494 34.2853 31.4283C34.2853 31.8071 34.1348 32.1705 33.8669 32.4384C33.599 32.7063 33.2356 32.8568 32.8568 32.8568ZM32.8568 25.714H24.2854C23.9065 25.714 23.5432 25.5635 23.2753 25.2956C23.0074 25.0277 22.8569 24.6644 22.8569 24.2855C22.8569 23.9066 23.0074 23.5432 23.2753 23.2753C23.5432 23.0074 23.9065 22.8569 24.2854 22.8569H32.8568C33.2356 22.8569 33.599 23.0074 33.8669 23.2753C34.1348 23.5432 34.2853 23.9066 34.2853 24.2855C34.2853 24.6644 34.1348 25.0277 33.8669 25.2956C33.599 25.5635 33.2356 25.714 32.8568 25.714ZM32.8568 18.5712H24.2854C23.9065 18.5712 23.5432 18.4207 23.2753 18.1528C23.0074 17.8849 22.8569 17.5216 22.8569 17.1427C22.8569 16.7638 23.0074 16.4005 23.2753 16.1325C23.5432 15.8646 23.9065 15.7141 24.2854 15.7141H32.8568C33.2356 15.7141 33.599 15.8646 33.8669 16.1325C34.1348 16.4005 34.2853 16.7638 34.2853 17.1427C34.2853 17.5216 34.1348 17.8849 33.8669 18.1528C33.599 18.4207 33.2356 18.5712 32.8568 18.5712Z" fill="#B9AFA5"/>
<path d="M2.85742 29.8853V38.5709C2.85883 38.8529 2.94369 39.1282 3.10131 39.3621C3.25892 39.596 3.48225 39.778 3.74313 39.8852C4.00328 39.9946 4.29001 40.0244 4.56714 39.9711C4.84426 39.9177 5.09937 39.7834 5.30025 39.5852L8.57165 36.2995L11.843 39.5852C11.9765 39.7176 12.1348 39.8223 12.3089 39.8934C12.4829 39.9645 12.6693 40.0005 12.8573 39.9994C13.0447 40.0043 13.2306 39.9651 13.4002 39.8852C13.6611 39.778 13.8844 39.596 14.042 39.3621C14.1996 39.1282 14.2845 38.8529 14.2859 38.5709V29.8853C12.5509 30.8954 10.5792 31.4275 8.57165 31.4275C6.56407 31.4275 4.59237 30.8954 2.85742 29.8853Z" fill="#B9AFA5"/>
<path d="M8.57134 28.5709C13.3052 28.5709 17.1427 24.7334 17.1427 19.9996C17.1427 15.2657 13.3052 11.4282 8.57134 11.4282C3.83752 11.4282 0 15.2657 0 19.9996C0 24.7334 3.83752 28.5709 8.57134 28.5709Z" fill="#B9AFA5"/>
</g>
<defs>
<clipPath id="clip0_7_410">
<rect width="40" height="40" fill="white"/>
</clipPath>
</defs>
</svg>
