<svg width="36" height="36" viewBox="0 0 36 36" fill="none" xmlns="http://www.w3.org/2000/svg">
<g clip-path="url(#clip0_7_452)">
<path d="M23.2842 10.506C23.0108 10.506 22.74 10.4522 22.4874 10.3475C22.2348 10.2429 22.0053 10.0896 21.812 9.89622C21.6187 9.70289 21.4653 9.47337 21.3607 9.22077C21.2561 8.96817 21.2022 8.69744 21.2022 8.42403C21.2022 8.15062 21.2561 7.87989 21.3607 7.62729C21.4653 7.37469 21.6187 7.14517 21.812 6.95184C22.0053 6.75851 22.2348 6.60515 22.4874 6.50052C22.74 6.39589 23.0108 6.34204 23.2842 6.34204H31.711C28.8939 3.03448 24.9756 0.857421 20.6791 0.21259C16.3826 -0.432241 11.9979 0.498675 8.33403 2.83356C4.67015 5.16844 1.9744 8.74971 0.744219 12.9165C-0.485961 17.0833 -0.167544 21.5545 1.64071 25.5049H12.726C13.2782 25.5049 13.8077 25.7243 14.1982 26.1147C14.5886 26.5052 14.808 27.0347 14.808 27.5869C14.808 28.1391 14.5886 28.6687 14.1982 29.0591C13.8077 29.4496 13.2782 29.6689 12.726 29.6689H4.2992C7.11625 32.9765 11.0345 35.1535 15.331 35.7984C19.6275 36.4432 24.0123 35.5123 27.6762 33.1774C31.34 30.8425 34.0358 27.2612 35.266 23.0944C36.4961 18.9276 36.1777 14.4565 34.3695 10.506H23.2842Z" fill="#060612"/>
<path d="M28.5155 10.506H23.2775C23.0041 10.506 22.7334 10.4521 22.4808 10.3475C22.2282 10.2429 21.9987 10.0895 21.8053 9.89618C21.612 9.70285 21.4587 9.47333 21.354 9.22073C21.2494 8.96814 21.1955 8.6974 21.1955 8.42399C21.1955 8.15058 21.2494 7.87985 21.354 7.62725C21.4587 7.37465 21.612 7.14513 21.8053 6.9518C21.9987 6.75847 22.2282 6.60511 22.4808 6.50048C22.7334 6.39585 23.0041 6.342 23.2775 6.342H29.5103C29.5982 5.66656 29.6509 4.98703 29.6685 4.30613C26.8268 1.87514 23.2978 0.390695 19.5728 0.0594559C15.8479 -0.271783 12.1124 0.56667 8.8863 2.45808C5.66024 4.3495 3.10421 7.19975 1.57405 10.612C0.0438924 14.0243 -0.384231 17.8287 0.349277 21.4957C2.88698 22.8281 5.6811 23.6001 8.54284 23.7597C11.4046 23.9194 14.2672 23.4629 16.9374 22.421C19.6075 21.3792 22.0229 19.7764 24.0203 17.7208C26.0177 15.6653 27.5506 13.2049 28.5155 10.506Z" fill="#060612"/>
</g>
<defs>
<clipPath id="clip0_7_452">
<rect width="36" height="36" fill="white"/>
</clipPath>
</defs>
</svg>
