<svg width="40" height="40" viewBox="0 0 40 40" fill="none" xmlns="http://www.w3.org/2000/svg">
<g clip-path="url(#clip0_7_351)">
<path d="M40 16.6667V23.3333C40 25.1719 38.5052 26.6667 36.6667 26.6667H35.7591C34.4844 34.2214 27.9128 40 20 40C19.263 40 18.6667 39.4036 18.6667 38.6667C18.6667 37.9297 19.263 37.3333 20 37.3333C27.3516 37.3333 33.3333 31.3516 33.3333 24V16C33.3333 8.64844 27.3516 2.66667 20 2.66667C12.6484 2.66667 6.66667 8.64844 6.66667 16V25.3333C6.66667 26.0703 6.07031 26.6667 5.33333 26.6667H3.33333C1.49479 26.6667 0 25.1719 0 23.3333V16.6667C0 14.8281 1.49479 13.3333 3.33333 13.3333H4.24089C5.51562 5.77865 12.0872 0 20 0C27.9128 0 34.4844 5.77865 35.7591 13.3333H36.6667C38.5052 13.3333 40 14.8281 40 16.6667ZM20 5.33333C14.1185 5.33333 9.33333 10.1185 9.33333 16V22.6667C9.33333 28.5482 14.1185 33.3333 20 33.3333C25.8815 33.3333 30.6667 28.5482 30.6667 22.6667V16C30.6667 10.1185 25.8815 5.33333 20 5.33333Z" fill="#B9AFA5"/>
</g>
<defs>
<clipPath id="clip0_7_351">
<rect width="40" height="40" fill="white"/>
</clipPath>
</defs>
</svg>
