<svg width="40" height="40" viewBox="0 0 40 40" fill="none" xmlns="http://www.w3.org/2000/svg">
<g clip-path="url(#clip0_7_310)">
<path d="M34.2263 21.3531H31.1328C31.4481 22.2164 31.6204 23.1481 31.6204 24.1191V35.8105C31.6204 36.2154 31.5499 36.604 31.4217 36.9654H36.5359C38.4463 36.9654 40.0004 35.4111 40.0004 33.5008V27.1273C40.0005 23.9435 37.4102 21.3531 34.2263 21.3531Z" fill="#B9AFA5"/>
<path d="M8.38009 24.1192C8.38009 23.1481 8.55236 22.2166 8.86767 21.3533H5.77423C2.59032 21.3533 0 23.9436 0 27.1275V33.501C0 35.4113 1.55414 36.9656 3.46454 36.9656H8.57877C8.45056 36.604 8.38009 36.2155 8.38009 35.8106V24.1192Z" fill="#B9AFA5"/>
<path d="M23.5357 18.345H16.4637C13.2798 18.345 10.6895 20.9353 10.6895 24.1192V35.8106C10.6895 36.4484 11.2065 36.9655 11.8443 36.9655H28.1551C28.7929 36.9655 29.31 36.4484 29.31 35.8106V24.1192C29.31 20.9353 26.7196 18.345 23.5357 18.345Z" fill="#B9AFA5"/>
<path d="M20 3.03442C16.1709 3.03442 13.0558 6.14959 13.0558 9.97873C13.0558 12.576 14.4893 14.8444 16.6063 16.0353C17.6105 16.6002 18.7681 16.923 20 16.923C21.2319 16.923 22.3896 16.6002 23.3937 16.0353C25.5108 14.8444 26.9443 12.5759 26.9443 9.97873C26.9443 6.14966 23.8291 3.03442 20 3.03442Z" fill="#B9AFA5"/>
<path d="M7.80567 9.50696C4.942 9.50696 2.6123 11.8366 2.6123 14.7003C2.6123 17.564 4.942 19.8937 7.80567 19.8937C8.53208 19.8937 9.2238 19.7432 9.85216 19.4728C10.9386 19.005 11.8344 18.1771 12.3887 17.1399C12.7777 16.412 12.999 15.5817 12.999 14.7003C12.999 11.8367 10.6694 9.50696 7.80567 9.50696Z" fill="#B9AFA5"/>
<path d="M32.1943 9.50696C29.3307 9.50696 27.001 11.8366 27.001 14.7003C27.001 15.5817 27.2223 16.4121 27.6114 17.1399C28.1657 18.1771 29.0614 19.0051 30.1479 19.4728C30.7762 19.7432 31.4679 19.8937 32.1943 19.8937C35.058 19.8937 37.3877 17.564 37.3877 14.7003C37.3877 11.8366 35.058 9.50696 32.1943 9.50696Z" fill="#B9AFA5"/>
</g>
<defs>
<clipPath id="clip0_7_310">
<rect width="40" height="40" fill="white"/>
</clipPath>
</defs>
</svg>
