<svg width="40" height="40" viewBox="0 0 40 40" fill="none" xmlns="http://www.w3.org/2000/svg">
<g clip-path="url(#clip0_7_336)">
<path fill-rule="evenodd" clip-rule="evenodd" d="M38.2171 9.58268C38.1985 10.3529 37.5604 10.9631 36.7902 10.9464C36.0199 10.9278 35.4097 10.2897 35.4264 9.51942L35.5027 6.15943L32.1446 6.08315C31.3743 6.06454 30.7641 5.4264 30.7809 4.65617C30.7995 3.88594 31.4376 3.27571 32.2078 3.29245L36.9632 3.40222C37.7334 3.41896 38.3436 4.0571 38.325 4.82733L38.2171 9.58268Z" fill="#B9AFA5"/>
<path fill-rule="evenodd" clip-rule="evenodd" d="M8.51534 15.0617V37.6496C8.51534 38.9482 7.46418 39.9993 6.16558 39.9993H2.34977C1.05116 39.9993 0 38.9482 0 37.6496V15.0617C0 13.7649 1.05116 12.7119 2.34977 12.7119H6.16558C7.46418 12.7119 8.51534 13.7649 8.51534 15.0617Z" fill="#B9AFA5"/>
<path fill-rule="evenodd" clip-rule="evenodd" d="M29.5056 26.511V37.6496C29.5056 38.2729 29.2581 38.8701 28.8172 39.311C28.3763 39.7519 27.7791 39.9994 27.1558 39.9994H23.34C22.7167 39.9994 22.1195 39.7519 21.6786 39.311C21.2377 38.8701 20.9902 38.2729 20.9902 37.6496V26.511C20.9902 25.8878 21.2377 25.2906 21.6786 24.8496C22.1195 24.4087 22.7167 24.1613 23.34 24.1613H27.1558C27.7791 24.1613 28.3763 24.4087 28.8172 24.8496C29.2581 25.2906 29.5056 25.8878 29.5056 26.511Z" fill="#B9AFA5"/>
<path fill-rule="evenodd" clip-rule="evenodd" d="M19.0095 20.7865V37.6498C19.0095 38.9484 17.9583 39.9995 16.6597 39.9995H12.8439C11.5453 39.9995 10.4941 38.9484 10.4941 37.6498V20.7865C10.4941 20.1633 10.7416 19.5661 11.1825 19.1251C11.6234 18.6842 12.2207 18.4368 12.8439 18.4368H16.6597C17.9583 18.4368 19.0095 19.4898 19.0095 20.7865Z" fill="#B9AFA5"/>
<path fill-rule="evenodd" clip-rule="evenodd" d="M39.9997 20.7865V37.6498C39.9997 38.9484 38.9486 39.9995 37.6499 39.9995H33.8341C32.5355 39.9995 31.4844 38.9484 31.4844 37.6498V20.7865C31.4844 20.1633 31.7318 19.5661 32.1727 19.1251C32.6137 18.6842 33.2109 18.4368 33.8341 18.4368H37.6499C38.9486 18.4368 39.9997 19.4898 39.9997 20.7865Z" fill="#B9AFA5"/>
<path fill-rule="evenodd" clip-rule="evenodd" d="M2.23179 2.51108C1.61412 2.04969 1.48947 1.17341 1.95273 0.557596C2.41412 -0.0582175 3.28854 -0.182869 3.90621 0.278526L14.9816 8.5855H20.2411C20.6709 8.5855 21.0746 8.78271 21.3388 9.11945L25.5936 14.5353L35.4541 4.24504C35.9862 3.68876 36.8699 3.67015 37.4262 4.2041C37.9825 4.7362 38.0011 5.61992 37.469 6.1762L26.496 17.6255C26.2169 17.9176 25.8243 18.0739 25.4206 18.0534C25.0169 18.0348 24.6411 17.8394 24.3918 17.5213L19.5639 11.3762H14.5164C14.215 11.3762 13.9211 11.2794 13.6792 11.0971L2.23179 2.51108Z" fill="#B9AFA5"/>
</g>
<defs>
<clipPath id="clip0_7_336">
<rect width="40" height="40" fill="white"/>
</clipPath>
</defs>
</svg>
