<svg width="40" height="40" viewBox="0 0 40 40" fill="none" xmlns="http://www.w3.org/2000/svg">
<g clip-path="url(#clip0_7_368)">
<path fill-rule="evenodd" clip-rule="evenodd" d="M8.98081 31.3773C8.88909 31.3778 8.79784 31.3896 8.70908 31.4125C8.42727 31.4857 8.18687 31.6694 8.04217 31.9222L7.73731 32.4429C7.42948 32.9752 7.60246 33.656 8.12702 33.9768C8.37438 34.125 8.67095 34.1672 8.9498 34.0941C9.23169 34.0202 9.47201 33.836 9.61671 33.5831L9.92157 33.063C10.02 32.8908 10.0714 32.6958 10.0706 32.4975C10.0757 32.103 9.87117 31.7355 9.53327 31.5319C9.36646 31.4313 9.17551 31.3779 8.98081 31.3773Z" fill="#B9AFA5"/>
<path fill-rule="evenodd" clip-rule="evenodd" d="M35.7164 19.6581C35.561 19.6587 35.4131 19.7253 35.3097 19.8413C35.2062 19.9574 35.157 20.1119 35.1743 20.2664L36.3329 30.6925L39.3124 30.6876V19.6526L35.7164 19.6581Z" fill="#B9AFA5"/>
<path fill-rule="evenodd" clip-rule="evenodd" d="M4.69426 19.8402C4.5909 19.7237 4.44238 19.6574 4.28666 19.6581L0.689209 19.6526V30.6876L3.6721 30.6925L4.83076 20.2664C4.84896 20.1113 4.79919 19.9559 4.69426 19.8402Z" fill="#B9AFA5"/>
<path fill-rule="evenodd" clip-rule="evenodd" d="M14.8496 35.0747C14.5756 35.1448 14.3407 35.3213 14.1972 35.5651C14.193 35.5733 14.1896 35.5823 14.1848 35.5899L13.8799 36.112L13.8744 36.1195C13.5715 36.6512 13.7486 37.3273 14.273 37.6424C14.5192 37.7893 14.814 37.8316 15.0916 37.7596C15.3692 37.6877 15.6064 37.5076 15.7503 37.2596L16.0635 36.7217C16.3706 36.1891 16.1945 35.5087 15.6676 35.1919C15.4221 35.0437 15.1269 35.0014 14.8496 35.0747Z" fill="#B9AFA5"/>
<path fill-rule="evenodd" clip-rule="evenodd" d="M12.0523 33.2112C11.9605 33.2116 11.8693 33.2234 11.7805 33.2463C11.4993 33.3195 11.2592 33.5027 11.1143 33.7546L10.8088 34.2767C10.5009 34.8088 10.6734 35.4895 11.1978 35.8106C11.4451 35.9578 11.7408 36.0001 12.0195 35.928C12.2981 35.856 12.5364 35.6757 12.6813 35.4272L12.6854 35.4189L12.9979 34.8809V34.8767C13.2892 34.3476 13.1149 33.6829 12.6013 33.3649C12.4354 33.2653 12.2458 33.2122 12.0523 33.2112Z" fill="#B9AFA5"/>
<path fill-rule="evenodd" clip-rule="evenodd" d="M15.6219 18.816L11.9231 20.6699C11.4462 20.9087 10.92 21.0327 10.3865 21.0319H6.13386L5.03442 30.9456L6.62834 31.6098L6.85249 31.2263C7.18126 30.6564 7.72464 30.2422 8.36124 30.0762C8.99784 29.9101 9.67436 30.0062 10.2395 30.3428C10.8195 30.6946 11.2311 31.2673 11.3796 31.9291C11.3976 31.9242 11.4134 31.9146 11.4313 31.9098C12.0774 31.7427 12.7636 31.8449 13.3329 32.1931C13.9022 32.5412 14.3059 33.1055 14.4515 33.7567C14.4688 33.7519 14.4846 33.7429 14.5025 33.7382C15.1368 33.5714 15.8117 33.6682 16.3736 34.0064C16.9561 34.3567 17.3702 34.9298 17.5198 35.5927C17.5384 35.5879 17.5543 35.5782 17.573 35.5734C18.2074 35.4063 18.8825 35.5033 19.4441 35.8424C20.5419 36.5007 20.9637 37.8827 20.4207 39.0419L20.9332 39.4399C21.155 39.61 21.4355 39.6846 21.7125 39.6467C21.9872 39.6116 22.236 39.4668 22.4022 39.2453L22.4271 39.2143C22.7552 38.7429 22.6617 38.0979 22.2132 37.7391C21.9104 37.5052 21.8545 37.0701 22.0884 36.7673C22.3222 36.4645 22.7573 36.4086 23.0601 36.6424C23.2784 36.8125 23.5556 36.8882 23.8299 36.8524C24.1043 36.8166 24.3529 36.6724 24.5202 36.452C24.883 35.9816 24.7996 35.3069 24.3333 34.9388L24.3216 34.9299C24.0258 34.6948 23.9741 34.2655 24.2057 33.967C24.4374 33.6685 24.866 33.6119 25.1672 33.8401C25.1738 33.8445 25.1799 33.8493 25.1858 33.8546L25.6389 34.2077C25.858 34.3791 26.1369 34.4551 26.4127 34.4186C26.6884 34.382 26.9378 34.2359 27.1046 34.0132C27.2804 33.7891 27.3593 33.504 27.3238 33.2214C27.2883 32.9388 27.1414 32.6821 26.9157 32.5083L26.3695 32.0807C26.0691 31.8463 26.0157 31.4127 26.2502 31.1124C26.4846 30.8121 26.9182 30.7586 27.2185 30.9931C27.6508 31.3501 28.2814 31.3291 28.6889 30.9441C28.8959 30.7203 28.9971 30.4184 28.9669 30.1151C28.9209 29.6937 28.6986 29.3116 28.3551 29.0633L21.4127 24.2099C21.1175 23.9955 20.7064 24.0481 20.4747 24.3299L17.2745 28.157C16.1985 29.4384 14.2968 29.6275 12.9895 28.5832C12.1336 27.9 11.9616 26.6668 12.5977 25.7755L15.7737 21.2387C16.4317 20.2981 17.3141 19.5367 18.3408 19.0234L19.3925 18.4958C18.1399 18.1265 16.7943 18.2407 15.6219 18.816Z" fill="#B9AFA5"/>
<path fill-rule="evenodd" clip-rule="evenodd" d="M18.1892 36.8734C17.8069 36.874 17.4536 37.0771 17.2608 37.4073L17.1374 37.6197L16.9436 37.9536C16.6406 38.4805 16.8151 39.1528 17.336 39.4661L17.3457 39.4722C17.592 39.6191 17.8868 39.6613 18.1644 39.5896C18.442 39.5178 18.6794 39.338 18.8237 39.0902L19.1423 38.5426C19.4473 38.0146 19.2731 37.3395 18.7505 37.0252C18.5806 36.9248 18.3866 36.8724 18.1892 36.8734Z" fill="#B9AFA5"/>
<path fill-rule="evenodd" clip-rule="evenodd" d="M31.6836 21.0318C31.1488 21.0325 30.6214 20.9077 30.1435 20.6677L26.4433 18.8138C24.989 18.0951 23.2829 18.0951 21.8286 18.8138L18.9575 20.2524C18.1363 20.6635 17.4304 21.2727 16.9035 22.0249L13.7241 26.5714C13.6393 26.6867 13.5937 26.8261 13.5938 26.9693C13.5927 27.1782 13.6876 27.3759 13.851 27.5059C14.5708 28.0831 15.6196 27.9805 16.2139 27.2749L19.4161 23.4457C20.1066 22.611 21.3252 22.4529 22.2059 23.0837L29.1718 27.9556C29.8389 28.4403 30.2662 29.1875 30.3457 30.0082C30.36 30.2359 30.3428 30.4645 30.2947 30.6875L34.9439 30.6916L33.8673 21.0318H31.6836Z" fill="#B9AFA5"/>
<path fill-rule="evenodd" clip-rule="evenodd" d="M3.39018 7.03114C3.65074 7.24944 4.01412 7.29717 4.32226 7.15349C4.63032 7.00981 4.82736 6.70073 4.82752 6.3608V5.85874H24.1388C24.9007 5.85874 25.5182 5.2412 25.5182 4.47937V3.09992C25.5182 2.33808 24.9006 1.72055 24.1388 1.72055H4.82744V1.21849C4.82729 0.878553 4.63024 0.569474 4.32218 0.425795C4.01412 0.282116 3.65066 0.329774 3.3901 0.548145L0.315485 3.1068C0.115319 3.27712 0 3.52674 0 3.78957C0 4.05239 0.115319 4.30201 0.315485 4.47234L3.39018 7.03114Z" fill="#B9AFA5"/>
<path fill-rule="evenodd" clip-rule="evenodd" d="M35.1739 8.11536V8.61741H15.8625C15.1007 8.61741 14.4832 9.23495 14.4832 9.99678V11.3762C14.4832 12.138 15.1007 12.7555 15.8625 12.7555H35.1739V13.2576C35.1737 13.5974 35.3702 13.9065 35.6779 14.0506C35.9855 14.1947 36.3489 14.1477 36.6098 13.93L39.6844 11.3691C39.8846 11.1988 39.9999 10.9492 39.9999 10.6864C39.9999 10.4235 39.8846 10.1739 39.6844 10.0036L36.6111 7.44485C36.3506 7.22656 35.9872 7.17882 35.679 7.3225C35.3711 7.46634 35.174 7.77542 35.1739 8.11536Z" fill="#B9AFA5"/>
</g>
<defs>
<clipPath id="clip0_7_368">
<rect width="40" height="40" fill="white"/>
</clipPath>
</defs>
</svg>
